HIERARCHY
ROOT Hips
{
    OFFSET 0.0 0.0 0.0
    CHANNELS 6 Xposition Yposition Zposition Zrotation Xrotation Yrotation
    JOINT Spine
    {
        OFFSET 0.0 24.99717550194369 0.0
        CHANNELS 3 Zrotation Xrotation Yrotation
        JOINT Head
        {
            OFFSET 0.0 32.07453461521088 0.0
            CHANNELS 3 Zrotation Xrotation Yrotation
        }
        JOINT LeftUpperArm
        {
            OFFSET 16.4291351110527 24.997175501943687 0.0
            CHANNELS 3 Zrotation Xrotation Yrotation
            JOINT LeftLowerArm
            {
                OFFSET 23.871829223782157 0.0 0.0
                CHANNELS 3 Zrotation Xrotation Yrotation
                JOINT LeftHand
                {
                    OFFSET 23.021051914356576 0.0 0.0
                    CHANNELS 3 Zrotation Xrotation Yrotation
                }
                End Site
                {
                OFFSET 6.517608341232653 0.0 0.0
                }
            }
        }
        JOINT RightUpperArm
        {
            OFFSET -16.4291351110527 24.997175501943687 0.0
            CHANNELS 3 Zrotation Xrotation Yrotation
            JOINT RightLowerArm
            {
                OFFSET 23.871829223782157 0.0 0.0
                CHANNELS 3 Zrotation Xrotation Yrotation
                JOINT RightHand
                {
                    OFFSET 23.021051914356576 0.0 0.0
                    CHANNELS 3 Zrotation Xrotation Yrotation
                }
                End Site
                {
                OFFSET 6.517608341232653 0.0 0.0
                }
            }
        }
    }
    JOINT LeftUpperLeg
    {
        OFFSET 9.053016085917449 0.0 0.0
        CHANNELS 3 Zrotation Xrotation Yrotation
        JOINT LeftLowerLeg
        {
            OFFSET 37.82886434284703 0.0 0.0
            CHANNELS 3 Zrotation Xrotation Yrotation
            JOINT LeftFootAnkle
            {
                OFFSET 40.37157936307976 0.0 0.0
                CHANNELS 3 Zrotation Xrotation Yrotation
                End Site
                {
                OFFSET 11.283376939873094 0.0 0.0
                }
            }
        }
    }
    JOINT RightUpperLeg
    {
        OFFSET -9.053016085917449 0.0 0.0
        CHANNELS 3 Zrotation Xrotation Yrotation
        JOINT RightLowerLeg
        {
            OFFSET 37.82886434284703 0.0 0.0
            CHANNELS 3 Zrotation Xrotation Yrotation
            JOINT RightFootAnkle
            {
                OFFSET 40.37157936307976 0.0 0.0
                CHANNELS 3 Zrotation Xrotation Yrotation
                End Site
                {
                OFFSET 11.283376939873094 0.0 0.0
                }
            }
        }
    }
}
MOTION
Frames: 12
Frame Time: 0.03333333333333333
-0.14498975704684464 -0.16295978031711048 -0.08409965207775398 -4.290731744046599 -13.49189327192659 -13.503378455446981 -0.0 -0.0 -0.0 -20.235886751445616 12.08412297780818 139.72131752418443 167.90934708290996 -18.336386384755606 167.1385024794951 -174.98362367755092 -42.598593910176334 180.0 -30.701103265892677 47.13539542553201 42.60132656772779 30.42672069536805 -5.529399181956151 174.54508092624613 -156.11981347184562 -85.93911984122124 -179.9999999999998 34.14658930352118 -29.75051808567989 -172.5998744826097 -155.19770294576753 73.81699173223684 65.86498508232265 -155.77273169364784 21.343484304827523 180.0 -109.86071851013983 -31.528728878050217 180.0 114.61066631454776 59.716200508671896 164.37003416004998 -161.99564539020383 46.78657300320104 180.0 -93.52257034688006 7.937810036573281 180.0
-0.14500502167162102 -0.1638856216565289 -0.08376918632763862 -4.236533977034742 -13.139124768881073 -13.518597398474087 -0.0 -0.0 -0.0 -20.022369121371753 11.88332567879107 139.61715998111936 165.8960212864148 -28.261736288511365 166.55414075008457 -175.87736592549948 -31.532344123803018 180.0 -32.29727490229943 48.335157052314074 44.64588368198568 30.508650385429505 -5.288835636097629 174.38270156065013 -156.20261768770334 -86.96954980391797 -179.9999999999993 35.542833005989785 -30.754856564668998 -169.87923404907193 -154.5937087724867 74.27744501432997 65.26989141569358 -155.97731471574906 21.29725447608907 180.0 -109.36262044520076 -31.42139043159799 180.0 114.12096066164244 59.88577105616418 164.94075086757266 -161.95193741288338 46.86148275433037 180.0 -93.28697307508772 7.918987884997259 180.0
-0.14564866269125284 -0.16572258656191793 -0.08094698717475396 -3.957643002028457 -11.849019168723784 -13.518166887187101 -0.0 -0.0 -0.0 -19.48994572580158 11.192108063951087 139.42657631367106 161.72068649251833 -42.20480727651007 163.69767210406138 -175.7766123412115 -15.925552174780432 180.0 -31.277738539734276 48.487847774129044 43.15665840044835 30.58612729686624 -5.927031710351599 174.1737140502563 -156.3188799055589 -86.49545687721577 -179.9999999999999 36.94709451977645 -29.496804155863902 -170.3009260071661 -150.76880887137412 75.25705114364905 61.35258124084911 -156.07832529601126 20.891175414570508 180.0 -108.85879479097525 -31.305615324132745 180.0 112.36215545913568 60.94650645282936 166.85034217111712 -161.90975498381013 46.24453946443682 180.0 -93.22164712924123 7.768209971625148 180.0
-0.14613354819698104 -0.16786695170765567 -0.0768865540816098 -3.6544744667660507 -10.451049177923498 -13.439567386561102 -0.0 -0.0 -0.0 -19.03751027023139 10.52171245914422 139.326808642433 166.06734871262134 -27.966793323135356 163.91378624994894 -175.40721907688183 -28.03627648556762 180.0 -32.90462087232385 47.82475565519124 43.60538421578048 31.07976563317049 -7.353774517956039 174.6840378811495 -155.9796846613606 -87.1860258960025 -179.9999999999997 41.07381673847056 -29.29297814237242 -169.6202880142778 -145.79108390421732 76.15693836382779 56.25411932920231 -156.19316188607922 20.231745022266345 180.0 -109.01121660921801 -31.363859983553432 180.0 109.77949233760457 61.82016221631914 169.59210531796344 -162.07601006667394 45.553493121365854 180.0 -93.68724149106902 7.232220513276625 180.0
-0.14759956087972925 -0.16960610909659718 -0.07499507761572263 -3.315161692995307 -9.164409610739977 -13.13962916202143 -0.0 -0.0 -0.0 -18.469853104382675 9.7878681259022 139.02020910657833 90.47714646726794 -66.78802160358028 96.93458230111739 -162.67009700023752 38.69600004382959 180.0 -35.22252127742357 52.65616121235738 45.74576291319724 31.711445631229395 -10.3702020365632 175.13726682126963 -154.76368888253225 -83.96460188942417 179.99999999999858 67.86025299765375 -28.912231041243473 -164.9026802936945 -138.58108619156414 76.05214669076005 48.682873103564624 -156.27202308763 18.32337548957817 180.0 -109.27803121060553 -31.698364627652246 180.0 106.80789604713028 61.79543231692518 172.72736615210172 -162.30564479714818 45.20060848341968 180.0 -95.2330354432481 6.46299983361176 180.0
-0.1485093412976481 -0.17001009577085957 -0.07650368422763086 -3.348591638085523 -9.448176633379259 -12.908154484289769 -0.0 -0.0 -0.0 -18.646271731079548 10.098149181854923 138.87803408045122 81.56113948261857 -53.064180830618646 88.0539328479776 -160.8739470641517 43.900542954648905 180.0 -32.791436925558536 54.547736051235475 40.111263744761565 32.13646568905954 -9.096550261871903 174.6228346927715 -154.16828062259458 -68.45558372983336 179.9999999999999 74.76597589211363 -25.17491208882271 177.27989154927158 -136.09146637791164 74.86851018454317 46.009911608015514 -156.8944189300598 16.53583717791106 180.0 -109.9908985101784 -32.16397312599846 180.0 106.25494672680489 60.57732364349033 173.29343412045682 -162.691653788278 45.94166512245417 180.0 -97.14784483456135 6.414812882599296 180.0
-0.14839940533182047 -0.17161544193578268 -0.07373148993135885 -3.3684974515022605 -10.090424374668762 -12.128225877495584 -0.0 -0.0 -0.0 -18.967458588237548 10.86477761285698 138.47461558315246 92.26940911510705 -36.510394523517874 93.2389930230425 -162.64637621658298 42.967167453514904 180.0 -38.21033130200972 58.63126758543901 44.38706974642695 32.46985599673968 -7.776324879121414 173.45116316939482 -153.48158433999026 -64.00761998074191 179.9999999999999 87.75255616836716 -28.001534108626856 170.26657630057244 -136.2095653592425 73.69686004578513 46.00478994771926 -157.93719263265385 14.258896168984691 180.0 -110.74160196710238 -32.108020254771944 180.0 103.74665134385204 55.003436254854854 176.03304534509945 -164.2769114529013 50.66204834211096 180.0 -98.88691777663192 6.580318695586223 180.0
-0.1513735614450499 -0.17415977709966646 -0.06606153435249644 -3.025607365774397 -10.325214280693187 -9.92392779156271 -0.0 -0.0 -0.0 -19.45443074030074 12.014125989738508 137.09287900786617 96.82482338379496 -29.81596390232145 94.04183593811891 -162.35022670780435 39.04074141974209 180.0 -29.531760277561748 57.040783353831955 35.88286356554125 32.593676654788055 -4.688162546290162 171.34219246171384 -153.52553725485143 -45.297060875300566 179.9999999999999 82.35677682407434 -24.8287464287083 144.22732056915666 -138.47113760839318 73.11066900394938 47.99925874893354 -158.4938031581519 12.265466086678344 180.0 -112.2811501271432 -32.21480236455043 180.0 101.43098815974233 48.25445234590758 178.17276916848064 -165.602105611911 55.18294019206418 180.0 -100.11075603122778 6.716994942452001 180.0
-0.15097118605991353 -0.17993917518929914 -0.06273035760877711 -3.0987933489794126 -11.112870731820056 -9.09079711300151 -0.0 -0.0 -0.0 -19.410670504678627 13.048622419362953 136.0845892493457 98.63128482754455 -32.086286112154 94.71377629029573 -153.3240293764386 36.37323913040853 180.0 -46.281703709104676 53.65366848524252 40.64569240947767 33.08405734392886 -5.063573497941556 170.15117871656204 -152.73571171103924 -59.80677981853112 -179.99999999999974 104.25997487083642 -37.713695772759166 155.98161106350844 -139.8155533796108 71.93728257668671 49.39461078815915 -157.88065916940167 10.848786731286614 180.0 -112.40825524504625 -31.84695918953784 180.0 101.82995882216572 47.36507057599367 177.34705055543384 -165.8585929890721 55.095145537292446 180.0 -100.10945470660629 6.770376695920017 180.0
-0.14940214120078263 -0.18728942350091932 -0.06707898088914704 -3.5169195518809837 -11.837766670877908 -9.145362372155988 -0.0 -0.0 -0.0 -19.05764927243728 13.044739911922877 136.0963524814277 107.98916214686095 -36.004929359581574 100.35940466912719 -147.09911916913214 53.43085518778995 180.0 -96.6395031742894 42.02828550047696 85.51892679119392 33.854836031566926 -3.036417866511635 169.041352886574 27.130659822771687 52.16449422609891 -0.0 63.191439284907325 59.98300950037336 -31.812690420596073 -140.10705323407163 71.12713488908675 50.19209350083791 -157.31069594799263 9.56915179065357 180.0 -112.65066270006562 -31.85694764403463 180.0 102.97401408612944 49.44391486820719 175.87165425390802 -166.09628524954636 52.90286287809091 180.0 -99.616624748733 6.845839748644346 180.0
-0.14818411187113972 -0.19312606624244125 -0.06765307490212956 -3.7378329002613957 -12.151137163053603 -9.084896223298312 -0.0 -0.0 -0.0 -19.06415131429436 12.888574044441302 136.45046688985403 108.07556107624525 -38.4985592077507 100.959995471691 -142.02407372171658 59.69154792359986 180.0 -101.56715201224078 38.3149567483818 92.56001697682157 34.32694933905657 -3.483110098875628 168.9196229511914 27.367316121986512 50.71738304864311 -0.0 56.92255719211024 64.37350850635598 -28.364751292943893 -141.11724727086306 70.85779697968219 51.44364045468782 -156.86741872642966 9.398443497410154 180.0 -113.03583800126833 -31.91581930376135 180.0 103.64842569258582 50.625467155899464 175.06274117059328 -166.1799396314033 51.76380476152374 180.0 -99.50501214006938 7.231932571475871 180.0
-0.14727666966488884 -0.1967964844378583 -0.06586001850526545 -3.784867893986241 -12.362260811869533 -8.723010915279605 -0.0 -0.0 -0.0 -19.159498702459828 13.036028719785959 136.41504445158208 104.04796538923165 -38.84347127569337 98.05022245214147 -138.32490123344763 61.96801901703479 180.0 -100.60802532984948 42.95740457366651 94.69274037708128 34.55538712336411 -3.674817830856874 168.68346873461843 27.7695596238235 54.752295875503854 -2.5444437451708134e-14 49.31972182382033 60.57836081490465 -18.277151286842717 -142.8355336520779 70.73816582107942 53.23417821736366 -156.2994710500225 9.511563698808336 180.0 -113.21508946104133 -31.902612273841584 180.0 103.7729992347537 50.43928032466455 174.8554102536077 -166.26667052997456 51.65519232475047 180.0 -99.6008502707764 7.544884901840085 180.0
